<svg xmlns="http://www.w3.org/2000/svg">
    <symbol id="varya-deviaterikova-logo" viewBox="0 0 20 20">
        <title>Varya Deviaterikova's portfolio site</title>
        <desc>Varya. Front-End Developer and UI Designer</desc>
        <path d="M13.5614 12.0664H6.48436L0.709941 6.29196C2.1828 2.60485 5.78702 0 10 0C14.2254 0 17.8385 2.62028 19.3031 6.3247L13.5614 12.0664ZM12.5614 13.0664L10.0229 15.6049L7.48436 13.0664H12.5614ZM0.354624 7.35086L9.66932 16.6656C9.86458 16.8608 10.1812 16.8608 10.3764 16.6656L19.6552 7.38682C19.88 8.21981 20 9.09589 20 10C20 15.5231 15.5231 20 10 20C4.47687 20 0 15.5231 0 10C0 9.08287 0.123444 8.19458 0.354624 7.35086ZM5.90555 4.54682C5.71029 4.35156 5.39371 4.35156 5.19845 4.54682C5.00318 4.74208 5.00318 5.05867 5.19845 5.25393L9.66907 9.72455C9.86432 9.91981 10.1809 9.91982 10.3762 9.72458L14.8474 5.25395C15.0427 5.0587 15.0427 4.74212 14.8475 4.54685C14.6522 4.35157 14.3356 4.35155 14.1403 4.5468L10.0226 8.66392L5.90555 4.54682Z" />
    </symbol>

    <symbol id="varya-deviaterikova-signature" viewBox="0 0 97 60">
        <title>Varya Deviaterikova's portfolio site</title>
        <desc>Varya. Front-End Developer and UI Designer</desc>
        <path d="M71.331 25.006c-4.71 8.981-14.466 28.054-31.597 32.596-25.871 6.858-30.888-8.269-22.822-13.906 15.579-10.888 36.632.985 57.603 1.39 11.638.226 17.33-7.162 18.02-14.716 1.004-10.977-10.757-19.96-24.87-24.141C57.958 3.353 42.963.62 32.945 3.903c-7.415 2.43-9.803 5.645-12.03 9.498-4.518 7.819-3.75 29.184-14.361 29.348-6.977.107-5.986-14.089-4.767-27.42.703-1.235 7.537-2.875 6.98 3.206-.555 6.081-4.133 19.606.933 17.79 3.601-1.29 3.727-15.788 9.294-24.86C23.953 3.38 33.425-.261 49.716 1.229 76.984 3.722 97.38 16.843 96.113 30.697c-.457 5-3.561 15.618-18.291 16.204-13.309.53-31.215-4.614-40.285-5.774-11.951-1.529-21.16 3.308-21.124 8.023.059 7.575 12.18 7.412 17.893 5.642 13.47-4.172 22.287-14.642 27.695-22.866-3.803 2.68-6.623 3.931-9.054 2.141-.402-.296-.608-.916-.647-1.726-3.595 4.32-9.49 8.29-12.521 3.898-.642-.93-1.318-3.543.62-6.79 2.603-4.36 9.196-8.477 13.046-10.505 4.128-2.175 7.988-3.917 7.014-5.776-1.609-3.072-14.477 3.525-18.277 3.178-6.14-.562-8.49-4.032-5.962-7.26 1.538-1.963 4.617-2.786 7.346-.517 2.936 2.441 1.77 7.166-.142 11.901-.288.714-6.699 13.515-11.26 12.673-1.372-.174-2.326-1.33-2.613-3.192-2.099 2.97-4.36 4.298-6.782 3.984-3.665-.475-6.247-6.88-.982-13.73 3.745-4.873 9.145-6.007 11.76-1.886 1.342-2.049 4.18-1.252 4.39.834.14 1.383-3.598 6-5.039 9.251-.6 1.354.634 3.214 2.832 1.454 2.065-2.191 4.49-5.838 5.356-7.92 3.57-8.583 3.221-11.129.564-11.877-3.543-.999-3.583 2.426-2.095 3.609 1.48 1.175 4.415 1.26 7.894.392s6.1-3.275 10.608-4.168c3.8-.753 9.018-.738 8.675 3.018-.294 3.216-4.995 3.897-10.004 5.955C46.86 22.92 44.04 32.163 45.62 34.062c1.627 1.954 4.741-.665 6.89-4.884.161-.318.332-.62.506-.903a15.84 15.84 0 011.414-3.071c1.562-2.58 4.364-5.095 6.147-5.12 2.629-.035 3.16 3.256-1.087 8.471-.916 1.125-2.126 2.387-3.475 3.594l-.795-.979a32.586 32.586 0 002.754-2.594c2.16-2.267 3.38-4.697 2.997-5.469-.599-1.207-5.687 4.53-4.883 7.754.65 2.606 5.585.51 8.165-2.529 2.114-3.53 3.482-6.235 4.244-7.163 1.807-2.2 3.763-1.813 4.335-.59.025.038.049.08.071.128.197.414.534 1.957 1.132 3.67 3.483-3.633 6.74-3.858 8.68-2.757 1.62.92 2.07 2.39 1.348 4.41 1.763-2.905 3.363-3.72 4.798-2.446 1.798 1.597-.702 3.702-1.67 4.812-2.607 2.991-5.958 7.144-4.66 8.473 1.45 1.487 2.732-3.065 4.56-1.283 2.356 2.297-2.16 5.316-5.172 3.938-1.83-.837-1.975-3.306-1.864-4.581-3.58 3.494-6.873 3.306-8.51 1.736-1.501-1.44-2.266-5.843.293-9.57.1-.147.202-.291.303-.432-.31-.538-.58-1.1-.81-1.671zm10.504 3.881c.625-1.206 1.175-2.523 1.399-3.746.558-3.052-4.038-2.26-7.033 3.316a8.505 8.505 0 00-.023.041c1.321 1.545 3.142 2.197 5.657.39zm-1.003 1.768c-2.019.862-3.892.539-5.476-.461-.904 2.11-1.055 3.64-.382 4.37.723.783 2.993.419 4.98-2.542.256-.384.56-.848.878-1.367zM32.74 20.038c-.18-1.771-3.443-3.302-7.91 3.437-2.089 3.152-1.716 6.912-.674 7.38 1.26.568 3.688-.73 5.423-4.067 1.709-3.285 3.195-6.407 3.16-6.75z" />
    </symbol>

    <symbol id="phone" viewBox="0 0 15 28" xmlns="http://www.w3.org/2000/svg">
        <path d="M2 0H13C14.1046 0 15 0.89543 15 2V26C15 27.1046 14.1046 28 13 28H2C0.89543 28 0 27.1046 0 26V2C0 0.89543 0.89543 0 2 0ZM3 4C2.44772 4 2 4.44772 2 5V23C2 23.5523 2.44772 24 3 24H12C12.5523 24 13 23.5523 13 23V5C13 4.44772 12.5523 4 12 4H3ZM7.5 6C9.433 6 11 7.567 11 9.5C11 11.433 9.433 13 7.5 13C5.567 13 4 11.433 4 9.5C4 7.567 5.567 6 7.5 6ZM5 15H10C10.5523 15 11 15.4477 11 16C11 16.5523 10.5523 17 10 17H5C4.44772 17 4 16.5523 4 16C4 15.4477 4.44772 15 5 15ZM5.5 18C6.32843 18 7 18.6716 7 19.5C7 20.3284 6.32843 21 5.5 21C4.67157 21 4 20.3284 4 19.5C4 18.6716 4.67157 18 5.5 18ZM9.5 18C10.3284 18 11 18.6716 11 19.5C11 20.3284 10.3284 21 9.5 21C8.67157 21 8 20.3284 8 19.5C8 18.6716 8.67157 18 9.5 18Z"/>
    </symbol>

    <symbol id="linkedin" viewBox="0 0 21 21" xmlns="http://www.w3.org/2000/svg">
        <path d="M18.9 0H2.10003C0.945031 0 3.05176e-05 0.945 3.05176e-05 2.1V18.9C3.05176e-05 20.055 0.945031 21 2.10003 21H18.9C20.055 21 21 20.055 21 18.9V2.1C21 0.945 20.055 0 18.9 0ZM6.30003 17.85H3.15003V8.4H6.30003V17.85ZM4.72503 6.615C3.67503 6.615 2.83503 5.775 2.83503 4.725C2.83503 3.675 3.67503 2.835 4.72503 2.835C5.77503 2.835 6.61503 3.675 6.61503 4.725C6.61503 5.775 5.77503 6.615 4.72503 6.615ZM17.85 17.85H14.7V12.285C14.7 11.445 13.965 10.71 13.125 10.71C12.285 10.71 11.55 11.445 11.55 12.285V17.85H8.40003V8.4H11.55V9.66C12.075 8.82 13.23 8.19 14.175 8.19C16.17 8.19 17.85 9.87 17.85 11.865V17.85Z"/>
    </symbol>

    <symbol id="github" viewBox="0 0 21 21" xmlns="http://www.w3.org/2000/svg">
        <path fill="inherit" d="M10.4991 0C4.70164 0 3.05176e-05 4.70088 3.05176e-05 10.5001C3.05176e-05 15.1391 3.00832 19.0742 7.18073 20.4626C7.70607 20.5593 7.89751 20.2351 7.89751 19.9567C7.89751 19.7078 7.88849 19.0472 7.88333 18.1712C4.96271 18.8054 4.34648 16.7634 4.34648 16.7634C3.86884 15.5503 3.18042 15.2274 3.18042 15.2274C2.22708 14.5764 3.25262 14.5893 3.25262 14.5893C4.30652 14.6634 4.86085 15.6715 4.86085 15.6715C5.79744 17.2759 7.31868 16.8124 7.91686 16.5436C8.01226 15.8655 8.28361 15.4027 8.58334 15.1404C6.25187 14.8755 3.80052 13.9744 3.80052 9.95093C3.80052 8.80488 4.20984 7.86702 4.8815 7.1335C4.77321 6.86794 4.41289 5.79988 4.98463 4.35474C4.98463 4.35474 5.86577 4.07242 7.87172 5.43118C8.70904 5.19784 9.6076 5.08182 10.5004 5.07731C11.3925 5.08182 12.2904 5.19784 13.129 5.43118C15.1337 4.07242 16.0135 4.35474 16.0135 4.35474C16.5865 5.79988 16.2262 6.86794 16.1186 7.1335C16.7915 7.86702 17.1976 8.80488 17.1976 9.95093C17.1976 13.9847 14.7424 14.8723 12.4038 15.132C12.7803 15.4562 13.1161 16.0969 13.1161 17.0767C13.1161 18.4799 13.1032 19.6125 13.1032 19.9567C13.1032 20.2377 13.2927 20.5645 13.8251 20.462C17.9943 19.0704 21 15.1378 21 10.5001C21 4.70088 16.2984 0 10.4991 0Z"/>
    </symbol>

    <symbol id="skype" viewBox="0 0 21 21" xmlns="http://www.w3.org/2000/svg">
        <path d="M20.1234 12.0202C20.2018 11.5244 20.2431 11.0172 20.2431 10.4995C20.2431 5.1184 15.881 0.756518 10.4997 0.756518C9.9833 0.756518 9.4746 0.799043 8.97923 0.876526C8.08188 0.321306 7.02278 0 5.88776 0C2.63611 0 3.05176e-05 2.63568 3.05176e-05 5.88761C3.05176e-05 7.02236 0.32154 8.08056 0.876526 8.97969C0.799725 9.47632 0.757446 9.98194 0.757446 10.4997C0.757446 15.8811 5.11941 20.2417 10.4995 20.2417C11.0163 20.2417 11.5251 20.2018 12.0204 20.1237C12.9187 20.6778 13.9769 21 15.1117 21C18.3642 21 21 18.3636 21 15.1118C21.0003 13.9766 20.679 12.9187 20.1234 12.0202ZM15.1256 14.9307C14.7135 15.524 14.108 15.9877 13.3168 16.3211C12.5241 16.6554 11.5871 16.8217 10.505 16.8217C9.20816 16.8217 8.13442 16.5948 7.28687 16.1366C6.68609 15.8084 6.19746 15.3682 5.8218 14.8193C5.44536 14.2699 5.25451 13.732 5.25451 13.2074C5.25451 12.898 5.37251 12.6288 5.60223 12.4094C5.83434 12.1884 6.1333 12.0776 6.48615 12.0776C6.77519 12.0776 7.02347 12.1647 7.2256 12.3372C7.42622 12.5096 7.59452 12.7603 7.73215 13.0912C7.89713 13.4744 8.07632 13.7948 8.26698 14.0504C8.45646 14.3029 8.72314 14.5137 9.06853 14.6786C9.4101 14.8441 9.8647 14.9268 10.4336 14.9268C11.2121 14.9268 11.8412 14.7584 12.3227 14.4262C12.8067 14.091 13.0391 13.6831 13.0391 13.1903C13.0391 12.7972 12.9138 12.485 12.6568 12.2416C12.3974 11.9951 12.0625 11.8073 11.6468 11.6763C11.2296 11.5439 10.6694 11.4036 9.96733 11.2557C9.02463 11.0499 8.23622 10.8105 7.59774 10.5354C6.95843 10.2594 6.44929 9.88204 6.07193 9.40538C5.69379 8.92403 5.50523 8.32575 5.50523 7.61713C5.50523 6.94141 5.70428 6.33713 6.10278 5.8112C6.50109 5.28381 7.07737 4.88014 7.82877 4.59897C8.57754 4.31789 9.45907 4.17728 10.469 4.17728C11.2766 4.17728 11.9751 4.27073 12.5665 4.45665C13.1562 4.64393 13.6477 4.89108 14.0407 5.2012C14.4313 5.51064 14.7187 5.83703 14.9007 6.17952C15.0826 6.52305 15.1742 6.85856 15.1742 7.18597C15.1742 7.49038 15.0562 7.76648 14.8262 8.00845C14.5963 8.25076 14.3022 8.37428 13.9587 8.37316C13.649 8.37316 13.4061 8.30173 13.2377 8.15052C13.0736 8.00425 12.9013 7.77136 12.715 7.44678C12.4794 6.9939 12.1972 6.64105 11.8691 6.38868C11.5497 6.141 11.0226 6.01206 10.2892 6.01362C9.61067 6.01362 9.06774 6.15228 8.65796 6.42345C8.24564 6.69896 8.04853 7.0186 8.04761 7.39313C8.04829 7.62782 8.11577 7.8257 8.25155 7.99492C8.38943 8.16571 8.58126 8.31369 8.82782 8.43843C9.07448 8.56513 9.32539 8.66312 9.57752 8.73362C9.83263 8.80593 10.2559 8.91046 10.8442 9.04887C11.582 9.20789 12.2513 9.38556 12.8527 9.57919C13.4529 9.7738 13.9651 10.0085 14.3882 10.2881C14.8148 10.5669 15.1481 10.9223 15.3861 11.3516C15.6258 11.7816 15.7452 12.3068 15.7452 12.9248C15.7461 13.669 15.5388 14.3382 15.1256 14.9307Z"/>
    </symbol>

    <symbol id="telegram" viewBox="0 0 22 22" xmlns="http://www.w3.org/2000/svg">
        <path d="M22 11C22 17.0751 17.0752 22 11 22C4.9249 22 3.05176e-05 17.0751 3.05176e-05 11C3.05176e-05 4.92487 4.9249 0 11 0C17.0752 0 22 4.92487 22 11ZM11.3941 8.12077C10.3242 8.56579 8.18591 9.48685 4.97918 10.884C4.45846 11.091 4.18569 11.2936 4.16085 11.4917C4.11889 11.8265 4.5381 11.9583 5.10897 12.1378C5.18662 12.1622 5.26708 12.1875 5.34956 12.2143C5.9112 12.3969 6.66671 12.6105 7.05946 12.619C7.41573 12.6266 7.81337 12.4798 8.25237 12.1783C11.2485 10.1558 12.7951 9.13358 12.8922 9.11154C12.9607 9.09599 13.0557 9.07645 13.12 9.13361C13.1843 9.19078 13.178 9.29905 13.1712 9.32809C13.1296 9.50513 11.4841 11.035 10.6325 11.8267C10.367 12.0735 10.1787 12.2486 10.1402 12.2886C10.054 12.3782 9.96606 12.4629 9.88159 12.5443C9.35982 13.0473 8.96853 13.4245 9.90326 14.0405C10.3524 14.3365 10.7119 14.5813 11.0705 14.8255C11.4621 15.0922 11.8527 15.3582 12.3581 15.6895C12.4869 15.7739 12.6098 15.8615 12.7296 15.9469C13.1853 16.2718 13.5948 16.5637 14.1007 16.5172C14.3946 16.4901 14.6982 16.2137 14.8524 15.3894C15.2168 13.4413 15.9331 9.22034 16.0986 7.48098C16.1132 7.32859 16.0949 7.13356 16.0803 7.04795C16.0656 6.96233 16.035 6.84035 15.9237 6.75005C15.7919 6.64311 15.5884 6.62056 15.4974 6.62216C15.0837 6.62945 14.449 6.85017 11.3941 8.12077Z"/>
    </symbol>

    <symbol id="instagram" viewBox="0 0 22 22" xmlns="http://www.w3.org/2000/svg">
        <path fill="inherit" d="M11.0003 0C13.9877 0 14.3623 0.0126627 15.5356 0.0661955C16.7065 0.119597 17.5061 0.305565 18.2058 0.577508C18.9292 0.858576 19.5426 1.2347 20.1542 1.84623C20.7657 2.45779 21.1419 3.07123 21.423 3.79458C21.6949 4.49426 21.8809 5.29389 21.9343 6.46471C21.9878 7.63798 22.0005 8.01258 22.0005 11C22.0005 13.9874 21.9878 14.362 21.9343 15.5353C21.8809 16.7061 21.6949 17.5057 21.423 18.2054C21.1419 18.9288 20.7657 19.5422 20.1542 20.1538C19.5426 20.7653 18.9292 21.1414 18.2058 21.4225C17.5061 21.6944 16.7065 21.8804 15.5356 21.9338C14.3623 21.9873 13.9877 22 11.0003 22C8.01276 22 7.63817 21.9873 6.46488 21.9338C5.29403 21.8804 4.49438 21.6944 3.79469 21.4225C3.07132 21.1414 2.45786 20.7653 1.84628 20.1538C1.23475 19.5422 0.858621 18.9288 0.577546 18.2054C0.305598 17.5057 0.11963 16.7061 0.0662273 15.5353C0.012693 14.362 3.05176e-05 13.9874 3.05176e-05 11C3.05176e-05 8.01258 0.012693 7.63798 0.0662273 6.46471C0.11963 5.29389 0.305598 4.49426 0.577546 3.79458C0.858621 3.07123 1.23475 2.45779 1.84628 1.84623C2.45786 1.2347 3.07132 0.858576 3.79469 0.577508C4.49438 0.305565 5.29403 0.119597 6.46488 0.0661955C7.63817 0.0126627 8.01276 0 11.0003 0ZM11.0003 1.98198C8.06306 1.98198 7.71514 1.9932 6.55521 2.04612C5.4827 2.09503 4.90025 2.27423 4.51264 2.42487C3.99917 2.62442 3.63273 2.86278 3.24782 3.24773C2.86286 3.63263 2.6245 3.99906 2.42495 4.51252C2.27431 4.90013 2.09509 5.48257 2.04619 6.55506C1.99326 7.71496 1.98205 8.06288 1.98205 11C1.98205 13.9371 1.99326 14.285 2.04619 15.4449C2.09509 16.5174 2.27431 17.0999 2.42495 17.4875C2.6245 18.0009 2.8629 18.3674 3.24782 18.7523C3.63273 19.1372 3.99917 19.3756 4.51264 19.5751C4.90025 19.7258 5.4827 19.905 6.55521 19.9539C7.71501 20.0068 8.06284 20.018 11.0003 20.018C13.9376 20.018 14.2855 20.0068 15.4453 19.9539C16.5178 19.905 17.1002 19.7258 17.4879 19.5751C18.0013 19.3756 18.3678 19.1372 18.7527 18.7523C19.1376 18.3674 19.376 18.0009 19.5755 17.4875C19.7262 17.0999 19.9054 16.5174 19.9543 15.4449C20.0072 14.285 20.0184 13.9371 20.0184 11C20.0184 8.06288 20.0072 7.71496 19.9543 6.55506C19.9054 5.48257 19.7262 4.90013 19.5755 4.51252C19.376 3.99906 19.1376 3.63263 18.7527 3.24773C18.3678 2.86278 18.0013 2.62442 17.4879 2.42487C17.1002 2.27423 16.5178 2.09503 15.4453 2.04612C14.2854 1.9932 13.9374 1.98198 11.0003 1.98198ZM11.0003 14.6667C13.0253 14.6667 14.667 13.0251 14.667 11C14.667 8.97495 13.0253 7.33333 11.0003 7.33333C8.97515 7.33333 7.33351 8.97495 7.33351 11C7.33351 13.0251 8.97515 14.6667 11.0003 14.6667ZM11.0003 5.35136C14.12 5.35136 16.649 7.88032 16.649 11C16.649 14.1197 14.12 16.6486 11.0003 16.6486C7.8805 16.6486 5.35149 14.1197 5.35149 11C5.35149 7.88032 7.8805 5.35136 11.0003 5.35136ZM18.1922 5.12819C18.1922 5.85721 17.6012 6.44817 16.8722 6.44817C16.1432 6.44817 15.5522 5.85721 15.5522 5.12819C15.5522 4.39916 16.1432 3.80816 16.8722 3.80816C17.6012 3.80816 18.1922 4.39916 18.1922 5.12819Z"/>
    </symbol>
</svg>
