<svg width="22" height="22" viewBox="0 0 22 22" fill="none" xmlns="http://www.w3.org/2000/svg">
<path d="M11 22C17.0751 22 22 17.0751 22 11C22 4.92487 17.0751 0 11 0C4.92487 0 0 4.92487 0 11C0 17.0751 4.92487 22 11 22Z" fill="white"/>
<path fill-rule="evenodd" clip-rule="evenodd" d="M14.5614 13.0664H7.48436L1.70994 7.29196C3.1828 3.60485 6.78702 1 11 1C15.2254 1 18.8385 3.62028 20.3031 7.3247L14.5614 13.0664ZM13.5614 14.0664L11.0229 16.6049L8.48436 14.0664H13.5614ZM1.35462 8.35086L10.6693 17.6656C10.8646 17.8608 11.1812 17.8608 11.3764 17.6656L20.6552 8.38682C20.88 9.21981 21 10.0959 21 11C21 16.5231 16.5231 21 11 21C5.47687 21 1 16.5231 1 11C1 10.0829 1.12344 9.19458 1.35462 8.35086ZM6.90555 5.54682C6.71029 5.35156 6.39371 5.35156 6.19845 5.54682C6.00318 5.74208 6.00318 6.05867 6.19845 6.25393L10.6691 10.7246C10.8643 10.9198 11.1809 10.9198 11.3762 10.7246L15.8474 6.25395C16.0427 6.0587 16.0427 5.74212 15.8475 5.54685C15.6522 5.35157 15.3356 5.35155 15.1403 5.5468L11.0226 9.66392L6.90555 5.54682Z" fill="#262626"/>
</svg>
